<svg width="568" height="544" viewBox="0 0 568 544" fill="none" xmlns="http://www.w3.org/2000/svg">
<path d="M475.994 267.497C362.39 376.758 425.875 430.552 267.497 475.994C109.12 521.436 59 382.647 59 267.497C59 152.347 152.347 59 267.497 59C382.647 59 589.598 158.237 475.994 267.497Z" fill="white" fill-opacity="0.15"/>
<path d="M275.606 504.257C316.912 492.406 346.249 479.338 368.192 463.402C390.806 446.98 403.843 428.761 414.268 409.904C418.559 402.143 422.369 394.451 426.232 386.653C440.312 358.23 455.088 328.4 496.376 288.69C529.909 256.439 544.191 219.977 536.301 182.732C528.925 147.911 503.535 119.763 475.03 98.6483C417.902 56.3323 331.207 29.5966 267.497 29.5966C136.108 29.5966 29.5966 136.108 29.5966 267.497C29.5966 328.034 42.5587 398.882 80.2741 449.529C99.5607 475.428 125.575 496.305 159.341 506.847C192.962 517.344 231.794 516.828 275.606 504.257Z" stroke="white" stroke-opacity="0.06" stroke-width="58.8069"/>
</svg>
