<svg width="12" height="12" viewBox="0 0 12 12" fill="none" xmlns="http://www.w3.org/2000/svg">
<g clip-path="url(#clip0_11_15003)">
<path d="M9.49623 1.92883H2.67397C2.1088 1.92883 1.65063 2.387 1.65063 2.95217V9.0922C1.65063 9.65738 2.1088 10.1155 2.67397 10.1155H9.49623C10.0614 10.1155 10.5196 9.65738 10.5196 9.0922V2.95217C10.5196 2.387 10.0614 1.92883 9.49623 1.92883Z" stroke="#FF6250" stroke-width="0.682226" stroke-linejoin="round"/>
<path d="M6.93794 5.6813C7.22053 5.6813 7.44961 5.45222 7.44961 5.16963C7.44961 4.88704 7.22053 4.65796 6.93794 4.65796C6.65535 4.65796 6.42627 4.88704 6.42627 5.16963C6.42627 5.45222 6.65535 5.6813 6.93794 5.6813Z" fill="#FF6250"/>
<path d="M8.64351 5.6813C8.92609 5.6813 9.15517 5.45222 9.15517 5.16963C9.15517 4.88704 8.92609 4.65796 8.64351 4.65796C8.36092 4.65796 8.13184 4.88704 8.13184 5.16963C8.13184 5.45222 8.36092 5.6813 8.64351 5.6813Z" fill="#FF6250"/>
<path d="M6.93794 7.38674C7.22053 7.38674 7.44961 7.15766 7.44961 6.87507C7.44961 6.59249 7.22053 6.3634 6.93794 6.3634C6.65535 6.3634 6.42627 6.59249 6.42627 6.87507C6.42627 7.15766 6.65535 7.38674 6.93794 7.38674Z" fill="#FF6250"/>
<path d="M8.64351 7.38674C8.92609 7.38674 9.15517 7.15766 9.15517 6.87507C9.15517 6.59249 8.92609 6.3634 8.64351 6.3634C8.36092 6.3634 8.13184 6.59249 8.13184 6.87507C8.13184 7.15766 8.36092 7.38674 8.64351 7.38674Z" fill="#FF6250"/>
<path d="M3.52681 7.38674C3.80939 7.38674 4.03848 7.15766 4.03848 6.87507C4.03848 6.59249 3.80939 6.3634 3.52681 6.3634C3.24422 6.3634 3.01514 6.59249 3.01514 6.87507C3.01514 7.15766 3.24422 7.38674 3.52681 7.38674Z" fill="#FF6250"/>
<path d="M5.23249 7.38674C5.51508 7.38674 5.74416 7.15766 5.74416 6.87507C5.74416 6.59249 5.51508 6.3634 5.23249 6.3634C4.94991 6.3634 4.72083 6.59249 4.72083 6.87507C4.72083 7.15766 4.94991 7.38674 5.23249 7.38674Z" fill="#FF6250"/>
<path d="M3.52681 9.09231C3.80939 9.09231 4.03848 8.86323 4.03848 8.58064C4.03848 8.29805 3.80939 8.06897 3.52681 8.06897C3.24422 8.06897 3.01514 8.29805 3.01514 8.58064C3.01514 8.86323 3.24422 9.09231 3.52681 9.09231Z" fill="#FF6250"/>
<path d="M5.23249 9.09231C5.51508 9.09231 5.74416 8.86323 5.74416 8.58064C5.74416 8.29805 5.51508 8.06897 5.23249 8.06897C4.94991 8.06897 4.72083 8.29805 4.72083 8.58064C4.72083 8.86323 4.94991 9.09231 5.23249 9.09231Z" fill="#FF6250"/>
<path d="M6.93794 9.09231C7.22053 9.09231 7.44961 8.86323 7.44961 8.58064C7.44961 8.29805 7.22053 8.06897 6.93794 8.06897C6.65535 8.06897 6.42627 8.29805 6.42627 8.58064C6.42627 8.86323 6.65535 9.09231 6.93794 9.09231Z" fill="#FF6250"/>
<path d="M3.35632 1.2467V1.92893M8.81413 1.2467V1.92893" stroke="#FF6250" stroke-width="0.682226" stroke-linecap="round" stroke-linejoin="round"/>
<path d="M10.5196 3.6344H1.65063" stroke="#FF6250" stroke-width="0.682226" stroke-linejoin="round"/>
</g>
<defs>
<clipPath id="clip0_11_15003">
<rect width="10.9156" height="10.9156" fill="white" transform="translate(0.627441 0.223389)"/>
</clipPath>
</defs>
</svg>
