<svg width="48" height="48" viewBox="0 0 48 48" fill="none" xmlns="http://www.w3.org/2000/svg">
<rect width="48" height="48" rx="4" fill="#7E84A3"/>
<path d="M27.75 25C27.75 24.8011 27.671 24.6103 27.5303 24.4697C27.3897 24.329 27.1989 24.25 27 24.25H21C20.8011 24.25 20.6103 24.329 20.4697 24.4697C20.329 24.6103 20.25 24.8011 20.25 25C20.25 25.1989 20.329 25.3897 20.4697 25.5303C20.6103 25.671 20.8011 25.75 21 25.75H27C27.1989 25.75 27.3897 25.671 27.5303 25.5303C27.671 25.3897 27.75 25.1989 27.75 25ZM27.75 29C27.75 28.8011 27.671 28.6103 27.5303 28.4697C27.3897 28.329 27.1989 28.25 27 28.25H21C20.8011 28.25 20.6103 28.329 20.4697 28.4697C20.329 28.6103 20.25 28.8011 20.25 29C20.25 29.1989 20.329 29.3897 20.4697 29.5303C20.6103 29.671 20.8011 29.75 21 29.75H27C27.1989 29.75 27.3897 29.671 27.5303 29.5303C27.671 29.3897 27.75 29.1989 27.75 29Z" fill="white"/>
<path fill-rule="evenodd" clip-rule="evenodd" d="M19 14.25C18.2707 14.25 17.5712 14.5397 17.0555 15.0555C16.5397 15.5712 16.25 16.2707 16.25 17V31C16.25 31.7293 16.5397 32.4288 17.0555 32.9445C17.5712 33.4603 18.2707 33.75 19 33.75H29C29.7293 33.75 30.4288 33.4603 30.9445 32.9445C31.4603 32.4288 31.75 31.7293 31.75 31V19.968C31.75 19.587 31.626 19.217 31.396 18.913L28.398 14.945C28.2349 14.7291 28.0239 14.554 27.7817 14.4334C27.5395 14.3128 27.2726 14.25 27.002 14.25H19ZM17.75 17C17.75 16.31 18.31 15.75 19 15.75H26.25V20.147C26.25 20.561 26.586 20.897 27 20.897H30.25V31C30.25 31.69 29.69 32.25 29 32.25H19C18.31 32.25 17.75 31.69 17.75 31V17Z" fill="white"/>
</svg>
