<svg width="14" height="14" viewBox="0 0 14 14" fill="none" xmlns="http://www.w3.org/2000/svg">
<path d="M1.54583 7.80819H6.14125V12.4036C6.14125 12.8707 6.52546 13.2624 7.00007 13.2624C7.47468 13.2624 7.85889 12.8707 7.85889 12.4036V7.80819H12.4543C12.9214 7.80819 13.3131 7.42398 13.3131 6.94937C13.3131 6.47476 12.9214 6.09056 12.4543 6.09056H7.85889V1.49513C7.85889 1.02806 7.47468 0.636314 7.00007 0.636314C6.52546 0.636314 6.14125 1.02806 6.14125 1.49513V6.09056H1.54583C1.07875 6.09056 0.687012 6.47476 0.687012 6.94937C0.687012 7.42398 1.07875 7.80819 1.54583 7.80819Z" fill="black"/>
</svg>
