<svg width="31" height="31" viewBox="0 0 31 31" fill="none" xmlns="http://www.w3.org/2000/svg">
<path d="M20.1875 13.7463H25.8125C26.3098 13.7463 26.7867 13.5488 27.1383 13.1972C27.49 12.8455 27.6875 12.3686 27.6875 11.8713V6.24634C27.6875 5.74906 27.49 5.27214 27.1383 4.92051C26.7867 4.56888 26.3098 4.37134 25.8125 4.37134H20.1875C19.6902 4.37134 19.2133 4.56888 18.8617 4.92051C18.51 5.27214 18.3125 5.74906 18.3125 6.24634V8.12134H17.375C16.3804 8.12134 15.4266 8.51643 14.7233 9.21969C14.0201 9.92295 13.625 10.8768 13.625 11.8713V14.6838H9.875V13.7463C9.875 13.2491 9.67746 12.7721 9.32582 12.4205C8.97419 12.0689 8.49728 11.8713 8 11.8713H4.25C3.75272 11.8713 3.27581 12.0689 2.92417 12.4205C2.57254 12.7721 2.375 13.2491 2.375 13.7463V17.4963C2.375 17.9936 2.57254 18.4705 2.92417 18.8222C3.27581 19.1738 3.75272 19.3713 4.25 19.3713H8C8.49728 19.3713 8.97419 19.1738 9.32582 18.8222C9.67746 18.4705 9.875 17.9936 9.875 17.4963V16.5588H13.625V19.3713C13.625 20.3659 14.0201 21.3197 14.7233 22.023C15.4266 22.7262 16.3804 23.1213 17.375 23.1213H18.3125V24.9963C18.3125 25.4936 18.51 25.9705 18.8617 26.3222C19.2133 26.6738 19.6902 26.8713 20.1875 26.8713H25.8125C26.3098 26.8713 26.7867 26.6738 27.1383 26.3222C27.49 25.9705 27.6875 25.4936 27.6875 24.9963V19.3713C27.6875 18.8741 27.49 18.3971 27.1383 18.0455C26.7867 17.6939 26.3098 17.4963 25.8125 17.4963H20.1875C19.6902 17.4963 19.2133 17.6939 18.8617 18.0455C18.51 18.3971 18.3125 18.8741 18.3125 19.3713V21.2463H17.375C16.8777 21.2463 16.4008 21.0488 16.0492 20.6972C15.6975 20.3455 15.5 19.8686 15.5 19.3713V11.8713C15.5 11.3741 15.6975 10.8971 16.0492 10.5455C16.4008 10.1939 16.8777 9.99634 17.375 9.99634H18.3125V11.8713C18.3125 12.3686 18.51 12.8455 18.8617 13.1972C19.2133 13.5488 19.6902 13.7463 20.1875 13.7463ZM8 17.4963H4.25V13.7463H8V17.4963ZM20.1875 19.3713H25.8125V24.9963H20.1875V19.3713ZM20.1875 6.24634H25.8125V11.8713H20.1875V6.24634Z" fill="#009DFB"/>
</svg>
