<svg width="50" height="50" viewBox="0 0 50 50" fill="none" xmlns="http://www.w3.org/2000/svg">
<path fill-rule="evenodd" clip-rule="evenodd" d="M17.2574 13.9281C17.2574 11.8766 18.0724 9.90909 19.523 8.45846C20.9737 7.00783 22.9411 6.19287 24.9926 6.19287C27.0441 6.19287 29.0116 7.00783 30.4623 8.45846C31.9129 9.90909 32.7278 11.8766 32.7278 13.9281C32.7278 15.9796 31.9129 17.9471 30.4623 19.3977C29.0116 20.8483 27.0441 21.6633 24.9926 21.6633C22.9411 21.6633 20.9737 20.8483 19.523 19.3977C18.0724 17.9471 17.2574 15.9796 17.2574 13.9281ZM32.7278 20.1162C32.7278 18.475 33.3798 16.9011 34.5403 15.7405C35.7008 14.58 37.2748 13.9281 38.916 13.9281C40.5572 13.9281 42.1312 14.58 43.2917 15.7405C44.4522 16.9011 45.1042 18.475 45.1042 20.1162C45.1042 21.7574 44.4522 23.3314 43.2917 24.4919C42.1312 25.6524 40.5572 26.3044 38.916 26.3044C37.2748 26.3044 35.7008 25.6524 34.5403 24.4919C33.3798 23.3314 32.7278 21.7574 32.7278 20.1162ZM4.8811 20.1162C4.8811 18.475 5.53307 16.9011 6.69358 15.7405C7.85408 14.58 9.42806 13.9281 11.0693 13.9281C12.7105 13.9281 14.2845 14.58 15.445 15.7405C16.6055 16.9011 17.2574 18.475 17.2574 20.1162C17.2574 21.7574 16.6055 23.3314 15.445 24.4919C14.2845 25.6524 12.7105 26.3044 11.0693 26.3044C9.42806 26.3044 7.85408 25.6524 6.69358 24.4919C5.53307 23.3314 4.8811 21.7574 4.8811 20.1162ZM13.2558 31.1889C14.5137 29.2166 16.2486 27.5933 18.3001 26.4692C20.3515 25.345 22.6533 24.7563 24.9926 24.7574C26.9519 24.7556 28.8894 25.1676 30.6783 25.9664C32.4673 26.7653 34.0673 27.933 35.3738 29.3931C36.6802 30.8531 37.6635 32.5726 38.2594 34.4391C38.8552 36.3055 39.0502 38.2767 38.8314 40.2236C38.8047 40.4655 38.7213 40.6977 38.5879 40.9013C38.4546 41.1048 38.2751 41.2741 38.0641 41.3953C34.0863 43.6777 29.5788 44.8755 24.9926 44.8689C20.4064 44.8761 15.8988 43.6783 11.9212 41.3953C11.7101 41.2741 11.5307 41.1048 11.3973 40.9013C11.264 40.6977 11.1806 40.4655 11.1538 40.2236C10.8074 37.0607 11.5488 33.8741 13.2558 31.1889Z" fill="white"/>
<path d="M10.7226 29.4065C8.68823 32.5467 7.7404 36.2677 8.02453 39.9986C6.78588 39.8108 5.56764 39.5069 4.38589 39.091L4.14868 39.0085C3.93704 38.9333 3.75171 38.7985 3.61516 38.6202C3.4786 38.4419 3.39667 38.2278 3.37929 38.0039L3.35866 37.7543C3.27534 36.7188 3.40147 35.677 3.72954 34.6913C4.05762 33.7055 4.5809 32.796 5.26817 32.0169C5.95544 31.2378 6.79261 30.6051 7.72973 30.1566C8.66685 29.7081 9.68471 29.453 10.7226 29.4065ZM41.9604 39.9986C42.2446 36.2677 41.2967 32.5467 39.2624 29.4065C40.3003 29.453 41.3181 29.7081 42.2552 30.1566C43.1923 30.6051 44.0295 31.2378 44.7168 32.0169C45.4041 32.796 45.9273 33.7055 46.2554 34.6913C46.5835 35.677 46.7096 36.7188 46.6263 37.7543L46.6057 38.0039C46.5879 38.2275 46.5058 38.4411 46.3693 38.619C46.2327 38.7969 46.0476 38.9314 45.8363 39.0064L45.5991 39.0889C44.4295 39.5015 43.2146 39.8088 41.9604 39.9986Z" fill="white"/>
</svg>
