<svg width="14" height="14" viewBox="0 0 14 14" fill="none" xmlns="http://www.w3.org/2000/svg">
<path d="M1.16145 11.5719C0.845049 11.8883 0.829982 12.4533 1.16899 12.7848C1.50046 13.1163 2.06547 13.1087 2.38188 12.7923L6.99237 8.17431L11.6104 12.7923C11.9343 13.1163 12.4918 13.1163 12.8233 12.7848C13.1472 12.4458 13.1548 11.8959 12.8233 11.5719L8.21279 6.95389L12.8233 2.3434C13.1548 2.01946 13.1548 1.46198 12.8233 1.13051C12.4843 0.806566 11.9343 0.799032 11.6104 1.12297L6.99237 5.741L2.38188 1.12297C2.06547 0.806566 1.49293 0.791499 1.16899 1.13051C0.837515 1.46198 0.845049 2.02699 1.16145 2.3434L5.77948 6.95389L1.16145 11.5719Z" fill="black"/>
</svg>
