<svg width="302" height="243" viewBox="0 0 302 243" fill="none" xmlns="http://www.w3.org/2000/svg">
<path d="M209.994 5.49707C96.39 114.758 159.875 168.552 1.4971 213.994C-156.881 259.436 -207 120.647 -207 5.49707C-207 -109.653 -113.653 -203 1.4971 -203C116.647 -203 323.598 -103.763 209.994 5.49707Z" fill="white" fill-opacity="0.15"/>
<path d="M9.60634 242.257C50.9118 230.406 80.2485 217.338 102.192 201.402C124.806 184.98 137.843 166.761 148.268 147.904C152.559 140.143 156.369 132.451 160.232 124.653C174.312 96.2296 189.088 66.3996 230.376 26.6897C263.909 -5.56059 278.191 -42.0232 270.301 -79.268C262.925 -114.089 237.535 -142.237 209.03 -163.352C151.902 -205.668 65.207 -232.403 1.4971 -232.403C-129.892 -232.403 -236.403 -125.892 -236.403 5.49707C-236.403 66.0342 -223.441 136.882 -185.726 187.529C-166.439 213.428 -140.425 234.305 -106.659 244.847C-73.0384 255.344 -34.2061 254.828 9.60634 242.257Z" stroke="white" stroke-opacity="0.06" stroke-width="58.8069"/>
</svg>
