<svg width="59" height="59" viewBox="0 0 59 59" fill="none" xmlns="http://www.w3.org/2000/svg">
<path d="M6.54492 34.0247V27.838C6.54492 22.8355 10.6291 18.7513 15.6316 18.7513H43.3749C48.3774 18.7513 52.4616 22.8355 52.4616 27.838V31.318H47.5799C46.2266 31.318 44.9941 31.8496 44.0999 32.768C43.0849 33.7588 42.5049 35.1847 42.6499 36.7072C42.8674 39.3172 45.2599 41.2263 47.8699 41.2263H52.4616V44.1022C52.4616 49.1047 48.3774 53.1888 43.3749 53.1888H15.6316C10.6291 53.1888 6.54492 49.1047 6.54492 44.1022" stroke="#1E5EFF" stroke-width="3.625" stroke-linecap="round" stroke-linejoin="round"/>
<path d="M30.1807 5.26635C33.1773 4.13051 36.3915 6.35392 36.3915 9.56808V18.7514" stroke="#1E5EFF" stroke-width="3.625" stroke-linecap="round" stroke-linejoin="round"/>
<path d="M6.54492 30.013V18.969C6.54492 16.0931 8.30909 13.5314 10.9916 12.5164L20.5858 8.89136" stroke="#1E5EFF" stroke-width="3.625" stroke-linecap="round" stroke-linejoin="round"/>
<path d="M55.0228 33.783V38.7615C55.0228 40.0907 53.9595 41.1781 52.6062 41.2264H47.8695C45.2595 41.2264 42.867 39.3172 42.6495 36.7072C42.5045 35.1847 43.0845 33.7589 44.0995 32.7681C44.9937 31.8497 46.2262 31.3181 47.5795 31.3181H52.6062C53.9595 31.3664 55.0228 32.4538 55.0228 33.783Z" stroke="#1E5EFF" stroke-width="3.625" stroke-linecap="round" stroke-linejoin="round"/>
<path d="M17.4199 29.0222H34.3366" stroke="#1E5EFF" stroke-width="3.625" stroke-linecap="round" stroke-linejoin="round"/>
</svg>
