<svg width="59" height="59" viewBox="0 0 59 59" fill="none" xmlns="http://www.w3.org/2000/svg">
<path d="M36.7078 46.8813C35.2095 47.8963 33.3245 48.7422 31.0287 49.4913L27.2103 50.748C17.6162 53.8413 12.5653 51.2555 9.44784 41.6613L6.3545 32.1155C3.26117 22.5213 5.82284 17.4463 15.417 14.353L19.2353 13.0963C20.2262 12.7822 21.1687 12.5163 22.0628 12.3472C21.3378 13.8213 20.7578 15.6097 20.2745 17.6638L17.9062 27.7897C15.5378 37.8913 18.6553 42.8697 28.7328 45.2622L32.7928 46.2288C34.1945 46.5672 35.4995 46.7847 36.7078 46.8813Z" stroke="#1E5EFF" stroke-width="3.625" stroke-linecap="round" stroke-linejoin="round"/>
<path d="M30.8599 20.6365L42.5807 23.609" stroke="#1E5EFF" stroke-width="3.625" stroke-linecap="round" stroke-linejoin="round"/>
<path d="M28.4907 29.9889L35.4991 31.7772" stroke="#1E5EFF" stroke-width="3.625" stroke-linecap="round" stroke-linejoin="round"/>
<path d="M50.9654 12.3472C53.5754 15.2472 54.0346 19.4039 52.6571 25.2522L50.2888 35.3539C48.2588 44.078 44.2471 47.6064 36.7071 46.8814C35.4988 46.7847 34.1938 46.5672 32.7921 46.2289L28.7321 45.2622C18.6546 42.8697 15.5371 37.8914 17.9055 27.7897L20.2738 17.6639C20.7571 15.6097 21.3371 13.8214 22.0621 12.3472C24.8896 6.49886 29.6988 4.92803 37.7705 6.8372L41.8063 7.7797" stroke="#1E5EFF" stroke-width="3.625" stroke-linecap="round" stroke-linejoin="round"/>
</svg>
