<svg width="59" height="59" viewBox="0 0 59 59" fill="none" xmlns="http://www.w3.org/2000/svg">
<path d="M5.30908 30.4963H46.3924" stroke="#1E5EFF" stroke-width="3.625" stroke-miterlimit="10" stroke-linecap="round" stroke-linejoin="round"/>
<path d="M26.4307 50.7722H14.4442C7.14582 50.7722 5.30908 48.9597 5.30908 41.758V24.8655C5.30908 18.3405 6.83158 16.238 12.5591 15.8997C13.1391 15.8755 13.7675 15.8513 14.4442 15.8513H37.2573C44.5557 15.8513 46.3924 17.6638 46.3924 24.8655V42.1447C46.3199 49.0322 44.4348 50.7722 37.2573 50.7722" stroke="#1E5EFF" stroke-width="3.625" stroke-linecap="round" stroke-linejoin="round"/>
<path d="M53.6424 16.2864V33.1789C53.6424 39.7039 52.1199 41.8064 46.3924 42.1447V24.8655C46.3924 17.6639 44.5557 15.8514 37.2573 15.8514H14.4442C13.7675 15.8514 13.1391 15.8755 12.5591 15.8997C12.6316 9.01222 14.5167 7.27222 21.6942 7.27222H44.5073C51.8057 7.27222 53.6424 9.08472 53.6424 16.2864Z" stroke="#1E5EFF" stroke-width="3.625" stroke-linecap="round" stroke-linejoin="round"/>
<path d="M13.1631 43.063H17.3197" stroke="#1E5EFF" stroke-width="3.625" stroke-miterlimit="10" stroke-linecap="round" stroke-linejoin="round"/>
<path d="M22.4912 43.063H30.8045" stroke="#1E5EFF" stroke-width="3.625" stroke-miterlimit="10" stroke-linecap="round" stroke-linejoin="round"/>
</svg>
