<svg width="47" height="47" viewBox="0 0 47 47" fill="none" xmlns="http://www.w3.org/2000/svg">
<path d="M23.5 23.5001L5.969 16.4971L7.05 42.3001H2.35L3.478 15.4866L0 14.1001L23.5 4.70007L47 14.1001L23.5 23.5001ZM23.5 11.7501C22.2075 11.7501 21.15 12.2671 21.15 12.9251C21.15 13.5831 22.2075 14.1001 23.5 14.1001C24.7925 14.1001 25.85 13.5831 25.85 12.9251C25.85 12.2671 24.7925 11.7501 23.5 11.7501ZM23.5 25.8501L36.5895 20.6096C38.258 22.8186 39.4095 25.4741 39.7855 28.3646C39.0805 28.2706 38.352 28.2001 37.6 28.2001C31.6075 28.2001 26.367 31.4196 23.5 36.2136C22.0448 33.7713 19.9803 31.7489 17.5086 30.3441C15.037 28.9394 12.2429 28.2006 9.4 28.2001C8.648 28.2001 7.9195 28.2706 7.2145 28.3646C7.5905 25.4741 8.742 22.8186 10.4105 20.6096L23.5 25.8501Z" fill="#1E5EFF"/>
</svg>
