<svg width="141" height="140" viewBox="0 0 141 140" fill="none" xmlns="http://www.w3.org/2000/svg">
<rect opacity="0.01" x="0.5" width="140" height="140" fill="white"/>
<path fill-rule="evenodd" clip-rule="evenodd" d="M106.5 16.9795L34.5 16.9998L34.5 77.6704C34.5 78.2199 106.5 77.9836 106.5 77.6704V16.9795Z" fill="#D7DBEC"/>
<path fill-rule="evenodd" clip-rule="evenodd" d="M112.5 25H28.5V125L34 119L39 125L44.5 119L49.5 125L55 119L60 125L65.5 119L70.5 125L76 119L81 125L86.5 119L91.5 125L97 119L102 125L107.5 119L112.5 125V25Z" fill="#336DFF"/>
<path d="M50.1466 44.5273L52.8536 47.4723L43.8589 55.7401L39.1191 51.2157L41.881 48.3223L43.9101 50.2598L50.1466 44.5273Z" fill="white"/>
<rect x="60.5" y="48" width="38" height="4" fill="white"/>
<path d="M50.1466 61.5273L52.8536 64.4723L43.8589 72.7401L39.1191 68.2157L41.881 65.3223L43.9101 67.2598L50.1466 61.5273Z" fill="white"/>
<rect x="61" y="65" width="38" height="4" fill="white"/>
<path d="M50.1466 78.5273L52.8536 81.4723L43.8589 89.7401L39.1191 85.2157L41.881 82.3223L43.9101 84.2598L50.1466 78.5273Z" fill="white"/>
<rect x="60.5" y="82" width="38" height="4" fill="white"/>
</svg>
